<svg width="24" height="24" viewBox="0 0 24 24" fill="none" xmlns="http://www.w3.org/2000/svg">
<path d="M21.0176 2H3.51576C3.11376 2 2.72822 2.1597 2.44396 2.44396C2.1597 2.72822 2 3.11376 2 3.51576V21.0176C2 21.4196 2.1597 21.8051 2.44396 22.0894C2.72822 22.3736 3.11376 22.5333 3.51576 22.5333H21.0176C21.4196 22.5333 21.8051 22.3736 22.0894 22.0894C22.3736 21.8051 22.5333 21.4196 22.5333 21.0176V3.51576C22.5333 3.11376 22.3736 2.72822 22.0894 2.44396C21.8051 2.1597 21.4196 2 21.0176 2ZM8.12007 19.4918H5.03295V9.68574H8.12007V19.4918ZM6.57437 8.32683C6.22419 8.32486 5.88244 8.2192 5.59225 8.02319C5.30206 7.82717 5.07644 7.54959 4.94386 7.22547C4.81128 6.90135 4.77769 6.54522 4.84732 6.20202C4.91694 5.85883 5.08667 5.54395 5.33509 5.29712C5.5835 5.0503 5.89946 4.8826 6.2431 4.81517C6.58673 4.74775 6.94264 4.78363 7.2659 4.91829C7.58917 5.05295 7.86529 5.28034 8.05944 5.57178C8.25359 5.86323 8.35705 6.20565 8.35678 6.55583C8.36008 6.79029 8.31615 7.023 8.2276 7.24011C8.13905 7.45722 8.0077 7.65428 7.84137 7.81955C7.67504 7.98481 7.47714 8.1149 7.25946 8.20205C7.04179 8.28921 6.80879 8.33164 6.57437 8.32683ZM19.499 19.5004H16.4133V14.1432C16.4133 12.5633 15.7416 12.0756 14.8747 12.0756C13.9592 12.0756 13.0609 12.7657 13.0609 14.1831V19.5004H9.97378V9.69287H12.9426V11.0518H12.9825C13.2805 10.4486 14.3243 9.41767 15.917 9.41767C17.6396 9.41767 19.5004 10.4401 19.5004 13.4345L19.499 19.5004Z" fill="white"/>
</svg>
