<svg width="34" height="34" viewBox="0 0 34 34" fill="none" xmlns="http://www.w3.org/2000/svg">
<path d="M17 32C25.2843 32 32 25.2843 32 17C32 8.71573 25.2843 2 17 2C8.71573 2 2 8.71573 2 17C2 25.2843 8.71573 32 17 32Z" fill="#0048CE"/>
<path d="M10.522 16.6928L17.8802 13.6548C18.6066 13.3383 21.0698 12.3257 21.0698 12.3257C21.0698 12.3257 22.2067 11.8826 22.112 12.9586C22.0804 13.4016 21.8278 14.9523 21.5751 16.6295L20.7856 21.5979C20.7856 21.5979 20.7224 22.3258 20.1856 22.4524C19.6487 22.5789 18.7645 22.0093 18.6066 21.8827C18.4802 21.7878 16.238 20.3637 15.4169 19.6675C15.1959 19.4776 14.9432 19.0979 15.4485 18.6548C16.5854 17.6105 17.9434 16.313 18.7645 15.4902C19.1434 15.1105 19.5224 14.2244 17.9434 15.3004L13.4905 18.3067C13.4905 18.3067 12.9852 18.6232 12.0378 18.3384C11.0904 18.0536 9.98511 17.6738 9.98511 17.6738C9.98511 17.6738 9.22718 17.1991 10.522 16.6928Z" fill="white"/>
</svg>
