<svg width="34" height="34" viewBox="0 0 34 34" fill="none" xmlns="http://www.w3.org/2000/svg">
<path d="M17 32C25.2843 32 32 25.2843 32 17C32 8.71573 25.2843 2 17 2C8.71573 2 2 8.71573 2 17C2 25.2843 8.71573 32 17 32Z" fill="#0048CE"/>
<path d="M13.4009 22.0094L13.658 22.1611C14.7379 22.7992 15.9761 23.1366 17.2387 23.1373H17.2414C21.1191 23.1373 24.275 19.9961 24.2765 16.1355C24.2771 14.2645 23.5461 12.5054 22.2178 11.1818C20.8895 9.85849 19.1234 9.12921 17.2439 9.12844C13.3634 9.12844 10.2074 12.2691 10.206 16.1298C10.2054 17.4527 10.5772 18.7412 11.2815 19.8558L11.4489 20.1208L10.738 22.7045L13.4009 22.0094ZM8.70593 24.7059L9.90673 20.3407C9.16606 19.0632 8.77642 17.614 8.77703 16.1294C8.77884 11.4846 12.5756 7.70587 17.2416 7.70587C19.5057 7.70684 21.6309 8.5841 23.229 10.1764C24.8269 11.7687 25.7067 13.8852 25.7059 16.1362C25.704 20.7806 21.9064 24.5601 17.2416 24.5601C17.2413 24.5601 17.2418 24.5601 17.2416 24.5601H17.238C15.8214 24.5596 14.4295 24.2059 13.1932 23.5346L8.70593 24.7059Z" fill="white"/>
<path fill-rule="evenodd" clip-rule="evenodd" d="M15.7797 13.3019C15.6507 13.0147 15.5149 13.009 15.3922 13.0039C15.2917 12.9997 15.1768 12.9999 15.0621 12.9999C14.9472 12.9999 14.7606 13.0431 14.6029 13.2157C14.4449 13.3882 14 13.8054 14 14.6537C14 15.5022 14.6172 16.322 14.7032 16.4372C14.7894 16.5521 15.8947 18.3488 17.6452 19.04C19.1001 19.6144 19.3962 19.5001 19.7119 19.4713C20.0277 19.4426 20.7309 19.0543 20.8744 18.6517C21.018 18.2491 21.018 17.9039 20.9749 17.8319C20.9319 17.76 20.817 17.7168 20.6448 17.6307C20.4725 17.5444 19.6258 17.1272 19.4679 17.0697C19.31 17.0122 19.1952 16.9835 19.0803 17.1561C18.9655 17.3285 18.6357 17.7168 18.5352 17.8319C18.4347 17.9471 18.3342 17.9615 18.162 17.8752C17.9897 17.7887 17.435 17.6068 16.7769 17.0194C16.2649 16.5624 15.9193 15.9979 15.8188 15.8253C15.7183 15.6528 15.8081 15.5594 15.8944 15.4735C15.9718 15.3962 16.0667 15.2721 16.1528 15.1715C16.2388 15.0708 16.2674 14.9989 16.3249 14.8839C16.3823 14.7688 16.3536 14.6681 16.3106 14.5818C16.2674 14.4956 15.9327 13.6428 15.7796 13.3019" fill="white"/>
</svg>
